<svg xmlns="http://www.w3.org/2000/svg" width="160.313" height="159.93" viewBox="0 0 160.313 159.93">
  <defs>
    <style>
      .cls-1 {
        fill: #fff;
        fill-rule: evenodd;
      }
    </style>
  </defs>
  <path id="LP_FITNESS_LP_FITNESS_LP_FITNESS_" data-name="LP FITNESS LP FITNESS LP FITNESS " class="cls-1" d="M769.138,1866.47l-3.975-14.82-8.466,2.27,0.876,3.27,4.622-1.24,3.1,11.55Zm-22.122-6.58a5.113,5.113,0,0,0-3.748,1.52,4.982,4.982,0,0,0-1.168,3.88,4.762,4.762,0,0,0,1.609,3.65,5.3,5.3,0,0,0,3.95,1.19l6.341-.32-0.756-15.32-3.975.2,0.251,5.07Zm2.851,6.9-1.356.07a2.361,2.361,0,0,1-1.727-.47,1.853,1.853,0,0,1-.528-1.35,1.765,1.765,0,0,1,.437-1.43,2.663,2.663,0,0,1,1.653-.57l1.333-.06Zm-31.1-.79,8.467,2.34,4.086-14.78-3.835-1.06-1.605,5.8-4.211-1.16-0.9,3.26,4.212,1.16-0.68,2.46-4.633-1.28Zm-5.849-2.39,6.46-13.92-3.609-1.67-6.46,13.91Zm-15.493-12.95-1.9,2.79,8.7,5.91,1.9-2.8-2.7-1.83,6.719-9.9-3.293-2.24-6.719,9.9Zm1.44-14.8-7.017,6.23,2.142-11.72-2.643-2.97-11.471,10.19,2.643,2.98,7.017-6.24-2.142,11.72,2.643,2.98,11.471-10.19Zm-27.434-13.36,3.98,7.76,13.649-7.01-3.98-7.75-3.008,1.54,2.163,4.22-2.353,1.2-2.048-3.99-3.008,1.55,2.048,3.99-2.272,1.16-2.163-4.21Zm11.041-9.67a10.793,10.793,0,0,0,.575-2.56,8.18,8.18,0,0,0-.292-3.04,5.926,5.926,0,0,0-2.684-3.97,5.212,5.212,0,0,0-4.107-.4,3.6,3.6,0,0,0-2.387,1.66,5.87,5.87,0,0,0-.744,3.08l-0.04,1.28a2.475,2.475,0,0,1-.32,1.46,1.018,1.018,0,0,1-.613.38,1.142,1.142,0,0,1-.9-0.16,1.91,1.91,0,0,1-.784-1.15,4.051,4.051,0,0,1,.32-2.8l-3.409-.73a10.8,10.8,0,0,0,.028,4.9,5.393,5.393,0,0,0,2.419,3.42,5.01,5.01,0,0,0,3.939.4,3.835,3.835,0,0,0,2.394-1.55,5.017,5.017,0,0,0,.627-2.45l0.043-1.09a5.445,5.445,0,0,1,.265-2.11,1.156,1.156,0,0,1,.775-0.66,1.344,1.344,0,0,1,1.034.12,2.057,2.057,0,0,1,.91,1.35,5.387,5.387,0,0,1-.6,3.81Zm-3.388-13.91a10.713,10.713,0,0,0,1.111-2.37,8.241,8.241,0,0,0,.368-3.04,5.935,5.935,0,0,0-1.769-4.45,5.18,5.18,0,0,0-3.925-1.27,3.621,3.621,0,0,0-2.689,1.11,5.878,5.878,0,0,0-1.389,2.85l-0.312,1.24a2.511,2.511,0,0,1-.629,1.36,1.068,1.068,0,0,1-.679.24,1.16,1.16,0,0,1-.845-0.36,1.884,1.884,0,0,1-.52-1.28,4.055,4.055,0,0,1,.915-2.67l-3.174-1.44a10.766,10.766,0,0,0-1.025,4.79,5.412,5.412,0,0,0,1.627,3.86,5.024,5.024,0,0,0,3.763,1.23,3.885,3.885,0,0,0,2.671-1,5.013,5.013,0,0,0,1.14-2.26l0.274-1.05a5.55,5.55,0,0,1,.714-2.01,1.235,1.235,0,0,1,.9-0.48,1.363,1.363,0,0,1,.983.35,2.011,2.011,0,0,1,.6,1.51,5.387,5.387,0,0,1-1.4,3.59Zm-12.482-26.05,14.8,4.02,2.3-8.45-3.262-.89-1.257,4.62-11.539-3.14Zm16.828-15.81a5.1,5.1,0,0,0,.577-4,4.971,4.971,0,0,0-2.763-2.97,4.773,4.773,0,0,0-3.964-.45,5.287,5.287,0,0,0-3.017,2.81l-2.928,5.63,13.615,7.08,1.835-3.53-4.511-2.35Zm-7.4-1.02,0.626-1.21a2.308,2.308,0,0,1,1.274-1.25,1.851,1.851,0,0,1,1.437.23,1.744,1.744,0,0,1,1.012,1.09,2.58,2.58,0,0,1-.346,1.71l-0.615,1.19Zm16.388-26.43-6.293,6.12,10.7,10.99,2.85-2.77-4.2-4.32,3.13-3.05-2.359-2.42-3.13,3.05-1.781-1.83,3.443-3.35Zm5-3.84,8.774,12.58,3.262-2.27-8.773-12.58Zm18.988-6.88-1.462-3.04-9.478,4.54,1.463,3.05,2.945-1.41,5.174,10.78,3.588-1.72-5.175-10.78Zm12.065,8.7-1.832-9.2,9.029,7.77,3.9-.78-3-15.05-3.9.78,1.833,9.2-9.029-7.77-3.9.78,3,15.05Zm25.367-16.92-8.7-.47-0.837,15.31,8.7,0.48,0.185-3.38-4.73-.25,0.144-2.64,4.477,0.24,0.185-3.38-4.477-.24,0.139-2.55,4.73,0.26Zm2.785,14.41a10.486,10.486,0,0,0,1.922,1.78,8.051,8.051,0,0,0,2.775,1.28,5.941,5.941,0,0,0,4.781-.32,5.218,5.218,0,0,0,2.411-3.35,3.619,3.619,0,0,0-.237-2.9,5.872,5.872,0,0,0-2.287-2.19l-1.08-.68a2.525,2.525,0,0,1-1.106-1.01,1.029,1.029,0,0,1-.019-0.72,1.118,1.118,0,0,1,.594-0.7,1.938,1.938,0,0,1,1.386-.1,4.034,4.034,0,0,1,2.258,1.69l2.345-2.58a10.583,10.583,0,0,0-4.246-2.44,5.4,5.4,0,0,0-4.174.36,5.027,5.027,0,0,0-2.324,3.21,3.863,3.863,0,0,0,.132,2.85,5.064,5.064,0,0,0,1.8,1.77l0.915,0.59a5.337,5.337,0,0,1,1.7,1.29,1.192,1.192,0,0,1,.181,1,1.36,1.36,0,0,1-.631.83,2.018,2.018,0,0,1-1.625.11,5.366,5.366,0,0,1-2.986-2.43Zm13.727,4.07a10.96,10.96,0,0,0,1.49,2.16,8.227,8.227,0,0,0,2.432,1.85,5.947,5.947,0,0,0,4.738.72,5.224,5.224,0,0,0,3.079-2.75,3.622,3.622,0,0,0,.4-2.88,5.843,5.843,0,0,0-1.758-2.64l-0.908-.89a2.534,2.534,0,0,1-.861-1.23,1.031,1.031,0,0,1,.138-0.71,1.16,1.16,0,0,1,.731-0.55,1.939,1.939,0,0,1,1.374.2,4.08,4.08,0,0,1,1.84,2.14l2.849-2.01a10.8,10.8,0,0,0-3.618-3.31,5.423,5.423,0,0,0-4.155-.54,5,5,0,0,0-2.963,2.62,3.873,3.873,0,0,0-.488,2.81,5.014,5.014,0,0,0,1.377,2.13l0.767,0.77a5.43,5.43,0,0,1,1.377,1.63,1.18,1.18,0,0,1-.041,1.01,1.384,1.384,0,0,1-.795.68,2.068,2.068,0,0,1-1.61-.25,5.36,5.36,0,0,1-2.388-3.02Zm28.766,2.36-10.948,10.76,6.141,6.25,2.413-2.37-3.353-3.41,8.536-8.39ZM804.28,1754a5.094,5.094,0,0,0,3.169,2.51,4.962,4.962,0,0,0,3.95-.89,4.769,4.769,0,0,0,2.383-3.2,5.282,5.282,0,0,0-.914-4.02l-3.4-5.36-12.955,8.21,2.129,3.36,4.292-2.72Zm4.6-5.88,0.727,1.15a2.32,2.32,0,0,1,.444,1.73,1.9,1.9,0,0,1-.919,1.13,1.768,1.768,0,0,1-1.456.32,2.581,2.581,0,0,1-1.306-1.16l-0.714-1.13Zm14.612,27.49-2.118-8.53-14.891,3.7,0.959,3.86,5.849-1.45,1.053,4.24,3.282-.81-1.053-4.24,2.478-.62,1.159,4.67Zm0.782,6.3-15.3,1.21,0.312,3.96,15.3-1.2Zm-3.658,19.83,3.37,0.27,0.853-10.48-3.371-.27-0.265,3.25-11.924-.97-0.322,3.97,11.923,0.97Zm-13.585,6.04,8.874,3.05-11.258,3.88-1.293,3.77,14.507,4.98,1.293-3.76-8.874-3.05,11.258-3.89,1.293-3.76-14.507-4.99Zm1.819,30.43,4.81-7.27-12.795-8.46-4.809,7.27,2.819,1.86,2.615-3.95,2.205,1.46-2.474,3.74,2.819,1.87,2.475-3.74,2.129,1.41-2.614,3.95Zm-13.858-4.86a10.652,10.652,0,0,0-2.512.76,8.065,8.065,0,0,0-2.5,1.75,5.948,5.948,0,0,0-2.138,4.29,5.194,5.194,0,0,0,1.674,3.77,3.6,3.6,0,0,0,2.624,1.26,5.888,5.888,0,0,0,3.05-.86l1.128-.6a2.521,2.521,0,0,1,1.435-.44,1.044,1.044,0,0,1,.632.35,1.139,1.139,0,0,1,.3.86,1.9,1.9,0,0,1-.613,1.25,4.081,4.081,0,0,1-2.6,1.1l1.043,3.33a10.788,10.788,0,0,0,4.252-2.44,5.39,5.39,0,0,0,1.791-3.79,5,5,0,0,0-1.593-3.62,3.862,3.862,0,0,0-2.526-1.33,5.131,5.131,0,0,0-2.446.66l-0.964.5a5.555,5.555,0,0,1-1.976.81,1.207,1.207,0,0,1-.957-0.35,1.375,1.375,0,0,1-.4-0.96,2.014,2.014,0,0,1,.729-1.46,5.353,5.353,0,0,1,3.608-1.35Zm-10.419,9.78a10.893,10.893,0,0,0-2.615.2,8.108,8.108,0,0,0-2.82,1.18,5.912,5.912,0,0,0-3,3.73,5.194,5.194,0,0,0,.829,4.04,3.587,3.587,0,0,0,2.292,1.79,5.885,5.885,0,0,0,3.164-.19l1.227-.34a2.436,2.436,0,0,1,1.5-.12,1,1,0,0,1,.542.47,1.135,1.135,0,0,1,.109.91,1.866,1.866,0,0,1-.865,1.08,3.951,3.951,0,0,1-2.77.52l0.308,3.48a10.9,10.9,0,0,0,4.671-1.47,5.4,5.4,0,0,0,2.559-3.32,5.009,5.009,0,0,0-.782-3.88,3.845,3.845,0,0,0-2.183-1.83,4.915,4.915,0,0,0-2.53.12l-1.047.28a5.663,5.663,0,0,1-2.1.37,1.235,1.235,0,0,1-.859-0.55,1.381,1.381,0,0,1-.183-1.03,2.036,2.036,0,0,1,1.024-1.26,5.335,5.335,0,0,1,3.81-.55Z" transform="translate(-664.531 -1710.19)"/>
</svg>
