<svg xmlns="http://www.w3.org/2000/svg" viewBox="0 0 320.01 320"><defs><style>.cls-1{fill:#191919;}</style></defs><g id="Camada_2" data-name="Camada 2"><g id="Layer_1" data-name="Layer 1"><path class="cls-1" d="M250,270H230V250a10,10,0,0,0-10-10H197.81L184.7,187.57a9.85,9.85,0,0,0-1.93-3.85C212.05,170.72,260,131,260,10A10,10,0,0,0,250,0H70A10,10,0,0,0,60,10c0,121,48,160.72,77.23,173.72a9.85,9.85,0,0,0-1.93,3.85L122.19,240H100a10,10,0,0,0-10,10v20H70a10,10,0,0,0-10,10v30a10,10,0,0,0,10,10h30a10,10,0,0,0,0-20H80V290H240v10H140a10,10,0,0,0,0,20H250a10,10,0,0,0,10-10V280A10,10,0,0,0,250,270ZM80.12,20H239.88C236.69,155,168.81,168.72,160,169.94,151.19,168.72,83.31,155,80.12,20ZM154.7,192.43a10,10,0,0,0,.28-3.06c2,.38,3.43.53,4,.58h0l.2,0,.68,0h.16l.68,0,.2,0h0c.61,0,2-.2,4-.58a10,10,0,0,0,.28,3.06L177.19,240H142.81ZM110,270V260H210v10Z"/><path class="cls-1" d="M320,29.84A10,10,0,0,0,310,20H280a10,10,0,0,0,0,20h19.57c-1.76,22.6-10.54,78-54.25,101.16a10,10,0,0,0,9.36,17.68C320.68,123.87,320.06,33.67,320,29.84Z"/><path class="cls-1" d="M70,160a10,10,0,0,0,4.69-18.84C31.12,118.09,22.26,62.63,20.46,40H40a10,10,0,0,0,0-20H10A10,10,0,0,0,0,29.84c-.06,3.83-.69,94,65.31,129A9.94,9.94,0,0,0,70,160Z"/></g></g></svg>