<svg xmlns="http://www.w3.org/2000/svg" viewBox="0 0 240 320"><defs><style>.cls-1{fill:#191919;}</style></defs><g id="Camada_2" data-name="Camada 2"><g id="Layer_1" data-name="Layer 1"><path class="cls-1" d="M89.08,240a19.14,19.14,0,0,1-6.29-1c-9.79-3.33-14.17-12.9-18-21.34-1.73-3.78-4.09-8.95-5.9-10.33s-7-2.09-11.11-2.68c-8.46-1.19-19-2.67-25-11.24-5.76-8.3-4-18.5-2.44-27.49.78-4.48,1.75-10.07,1-12.6-.68-2.2-4.42-5.92-7.43-8.91C7.69,138.24,0,130.59,0,120s7.69-18.23,13.88-24.37c3-3,6.75-6.7,7.43-8.91.79-2.53-.18-8.11-1-12.6-1.56-9-3.32-19.2,2.44-27.49,6-8.58,16.51-10.06,25-11.25,4.14-.58,9.31-1.3,11.09-2.67S63,26.16,64.77,22.38c3.85-8.44,8.23-18,18-21.35S101.7,3,109.13,7.16C112.92,9.3,117.63,12,120,12s7.08-2.65,10.86-4.79C138.32,3,147.58-2.25,157.22,1c9.79,3.33,14.16,12.91,18,21.35,1.73,3.78,4.1,9,5.91,10.33s7,2.09,11.09,2.67c8.47,1.19,19,2.67,25,11.25,5.77,8.29,4,18.49,2.44,27.49-.77,4.49-1.74,10.07-1,12.61.68,2.21,4.42,5.92,7.43,8.91C232.3,101.78,240,109.42,240,120s-7.7,18.24-13.88,24.38c-3,3-6.75,6.71-7.43,8.92-.79,2.52.18,8.1,1,12.58,1.56,9,3.33,19.2-2.44,27.5-6,8.57-16.5,10.05-25,11.24-4.14.59-9.31,1.31-11.1,2.68s-4.18,6.55-5.91,10.33c-3.85,8.44-8.23,18-18,21.34s-18.91-1.93-26.35-6.13c-3.79-2.13-8.5-4.78-10.87-4.78s-7.08,2.65-10.87,4.78C103.33,236.11,96.41,240,89.08,240Zm.16-220h-.16c-1.59.78-4.54,7.23-6.13,10.69-3,6.65-6.17,13.52-12,17.93-6,4.53-13.64,5.61-20.43,6.57-3.36.47-10.36,1.46-11.34,2.86s.22,9,.85,12.65c1.2,7,2.57,14.82.36,22C38.25,99.62,33,104.8,28,109.82,24.8,113,20,117.74,20,120s4.8,7,8,10.19c5.05,5,10.27,10.21,12.44,17.17,2.21,7.14.84,15-.36,21.95-.63,3.6-1.92,11.09-.85,12.65,1,1.4,8,2.39,11.34,2.86,6.79,1,14.49,2,20.44,6.57,5.79,4.41,8.93,11.28,12,17.93,1.58,3.46,4.53,9.91,6.28,10.73,1.7.23,6.91-2.85,10.08-4.64,6.12-3.44,13.07-7.35,20.68-7.35s14.56,3.91,20.68,7.35c3.17,1.79,8.45,4.89,10.25,4.59,1.58-.77,4.53-7.22,6.11-10.68,3-6.65,6.18-13.52,12-17.93s13.64-5.61,20.43-6.57c3.36-.47,10.35-1.46,11.34-2.86,1.07-1.55-.23-9.06-.86-12.66-1.2-6.94-2.57-14.8-.35-21.93,2.16-7,7.38-12.16,12.43-17.18,3.18-3.15,8-7.92,8-10.19s-4.79-7-8-10.18c-5.05-5-10.28-10.21-12.44-17.16-2.21-7.13-.85-15,.36-22,.62-3.61,1.92-11.11.84-12.66-1-1.4-8-2.39-11.34-2.86-6.79-1-14.48-2-20.43-6.57s-8.94-11.29-12-17.94c-1.58-3.45-4.52-9.89-6.28-10.72-1.57-.17-6.92,2.85-10.09,4.63C134.55,28,127.61,32,120,32S105.45,28,99.32,24.59C96.25,22.86,91.16,20,89.24,20Z"/><path class="cls-1" d="M159.73,320h-.31a10,10,0,0,1-8.66-5.57l-19.73-40A10,10,0,1,1,149,265.58l11.42,23.15,10.93-19.08a10.06,10.06,0,0,1,10.48-4.87l20.84,3.81L171,204.42A10,10,0,1,1,189,195.59l40.4,82a10,10,0,0,1-10.77,14.26l-33.44-6.1L168.41,315A10,10,0,0,1,159.73,320Z"/><path class="cls-1" d="M80.27,320a10,10,0,0,1-8.68-5L54.84,285.73l-33.44,6.1a10,10,0,0,1-10.76-14.26l40.39-82A10,10,0,1,1,69,204.42L37.36,268.59l20.84-3.81a10,10,0,0,1,10.48,4.87l11,19.14,31.41-63.23A10,10,0,0,1,129,234.45l-39.74,80A10,10,0,0,1,80.57,320Z"/><path class="cls-1" d="M120,190a70,70,0,1,1,70-70A70.08,70.08,0,0,1,120,190Zm0-120a50,50,0,1,0,50,50A50.06,50.06,0,0,0,120,70Z"/></g></g></svg>