<?xml version="1.0" encoding="utf-8"?>
<!-- Generator: Adobe Illustrator 25.2.1, SVG Export Plug-In . SVG Version: 6.00 Build 0)  -->
<svg version="1.1" id="layer" xmlns="http://www.w3.org/2000/svg" xmlns:xlink="http://www.w3.org/1999/xlink" x="0px" y="0px"
	 viewBox="0 0 321.2 47.5" style="enable-background:new 0 0 321.2 47.5;" xml:space="preserve">
<style type="text/css">
	.st0{fill:#080909;}
</style>
<g>
	<path class="st0" d="M11.8,35.5L11.8,35.5l4.9-35.4h-11L0,42.1c-0.2,2,1.1,5.4,4.6,5.4H40L41.5,37H13.2
		C12.3,37,11.8,36.2,11.8,35.5z"/>
</g>
<g>
	<path class="st0" d="M211,35.7L211,35.7l3.8-29.6h-10.4L199.3,43c-0.2,2.4,1.8,4.4,4,4.4H234l1.5-10.3h-23.4
		C211.2,37.2,211,36.2,211,35.7z"/>
</g>
<g>
	<path class="st0" d="M250.7,35.7L250.7,35.7l4-29.6h-10.4L239.2,43c-0.2,2.4,1.5,4.4,4,4.4h30.7l1.3-10.3H252
		C251.2,37.2,250.7,36.2,250.7,35.7z"/>
</g>
<g>
	<polygon class="st0" points="189.1,6.2 189.1,6.2 183.3,47.5 194.2,47.5 199.9,6.2 	"/>
</g>
<g>
	<path class="st0" d="M168.1,0.1L168.1,0.1c-1.8,0-2.4,1.5-2.4,1.5s-8.4,23.5-8.4,23.7l-0.2,0.2c-0.2,0-0.2-0.2-0.2-0.2
		c0-0.2-2.2-23.2-2.2-23.2c0-0.5-0.4-2-2.2-2c-1.5,0-16.4,0-16.4,0l-6.6,47.4h11l4.2-31l3.8,28.6c0.2,2.2,1.8,2.4,2.4,2.4
		c1.5,0,3.8,0,5.5,0c1.1,0,2-0.5,2.7-2l12.4-29.1l-4.2,31h11.5L185.6,0C185.5,0.1,169,0.1,168.1,0.1z"/>
</g>
<g>
	<path class="st0" d="M57.2,32.6L57.2,32.6c0-0.5,0.4-0.5,0.4-0.5h24.1c2.2,0,4-1.5,4.4-4.9l2.4-17.3c0.2-1.2-0.2-3.7-3.3-3.7H54.7
		c-1.8,0-4.9,1.5-5.3,5.6l-4.2,31c-0.7,3.2,1.3,4.6,3.5,4.6h34.5l1.5-10.3H57.2c-0.2,0-0.7-0.5-0.7-0.7L57.2,32.6z M58.7,21.1
		L58.7,21.1l0.7-4.2c0-0.2,0.2-0.5,0.4-0.5h17c0.4,0,0.7,0.5,0.7,0.7L76.8,21c0,0.2-0.2,0.5-0.4,0.5h-17
		C58.9,21.6,58.7,21.3,58.7,21.1z"/>
</g>
<g>
	<path class="st0" d="M102.5,16.9L102.5,16.9c0-0.2,0.2-0.5,0.7-0.5h26l1.5-10.3H98.4c-3.5,0-5.3,2.7-5.5,4.6l-2.4,17.4
		c-0.2,2.2,1.3,3.9,3.1,3.9h22.3c0.4,0,0.7,0.2,0.7,0.7l-0.7,3.7c0,0.5-0.2,0.7-0.4,0.7H89.4l-1.5,10.3h32.9c2.4,0,4.2-1.5,4.6-3.7
		l2.4-18.3c0.2-1.7-0.7-3.9-3.3-3.9h-22.1c-0.2,0-0.7-0.2-0.4-0.7L102.5,16.9z"/>
</g>
<g>
	<path class="st0" d="M293.2,16.9L293.2,16.9c0-0.2,0.2-0.5,0.4-0.5h26.1l1.5-10.3h-32.3c-3.5,0-5.1,2.7-5.3,4.6l-2.4,17.4
		c-0.4,2.2,1.4,3.9,2.9,3.9h22.5c0.2,0,0.4,0.2,0.4,0.7l-0.4,3.7c0,0.5-0.4,0.7-0.6,0.7h-26.1l-1.5,10.3h33.1c2.2,0,4.2-1.5,4.4-3.7
		l2.7-18.3c0.2-1.7-0.9-3.9-3.3-3.9h-22.1c-0.4,0-0.7-0.2-0.7-0.7L293.2,16.9z"/>
</g>
</svg>
