<svg xmlns="http://www.w3.org/2000/svg" width="11.54" height="211.594" viewBox="0 0 11.54 211.594">
  <defs>
    <style>
      .cls-1 {
        fill: #fff;
        fill-rule: evenodd;
      }
    </style>
  </defs>
  <path id="line_copiar" data-name="line copiar" class="cls-1" d="M1702.18,809.382a1.356,1.356,0,0,1-.18-0.744,4.073,4.073,0,0,1,.2-1.248,5.236,5.236,0,0,1,.41-0.976l-1.55-.576a4.826,4.826,0,0,0-.51,1.208,5.839,5.839,0,0,0-.21,1.592,3.411,3.411,0,0,0,.69,2.328,2.441,2.441,0,0,0,1.91.776,2.218,2.218,0,0,0,1.16-.272,2.369,2.369,0,0,0,.72-0.672,3.791,3.791,0,0,0,.46-0.88l0.33-.88a3.393,3.393,0,0,1,.33-0.672,0.521,0.521,0,0,1,.46-0.272,0.743,0.743,0,0,1,.72.928,3.992,3.992,0,0,1-.16,1.136q-0.165.561-.3,0.928l1.5,0.464a4.85,4.85,0,0,0,.43-1.152,6.443,6.443,0,0,0,.19-1.648,2.95,2.95,0,0,0-.62-2.032,2.3,2.3,0,0,0-1.81-.7,2.241,2.241,0,0,0-1.17.272,2.551,2.551,0,0,0-.76.672,3.461,3.461,0,0,0-.46.88q-0.165.48-.33,0.88a3.326,3.326,0,0,1-.35.672,0.6,0.6,0,0,1-.51.272A0.63,0.63,0,0,1,1702.18,809.382Zm0.46,8.893a3.027,3.027,0,0,1-.33-0.656,2.621,2.621,0,0,1-.13-0.9,1.856,1.856,0,0,1,.18-0.84,1.568,1.568,0,0,1,.5-0.584,2.414,2.414,0,0,1,.76-0.336,3.671,3.671,0,0,1,.94-0.112,2.958,2.958,0,0,1,1.82.448,1.59,1.59,0,0,1,.56,1.312,3.413,3.413,0,0,1-.09.824,5.624,5.624,0,0,1-.27.728l1.69,0.5a5.026,5.026,0,0,0,.37-0.968,5.475,5.475,0,0,0,.14-1.416,3.256,3.256,0,0,0-1.09-2.656,4.779,4.779,0,0,0-3.13-.912,7.545,7.545,0,0,0-1.73.184,3.475,3.475,0,0,0-1.33.6,2.731,2.731,0,0,0-.86,1.08,3.935,3.935,0,0,0-.3,1.624,5.446,5.446,0,0,0,.18,1.4,3.335,3.335,0,0,0,.54,1.16Zm5.92,6.307a2.968,2.968,0,0,0,.18-0.944,1.893,1.893,0,0,0-.32-1.088,2.215,2.215,0,0,0-.92-0.736V821.75l1.06-.24v-1.616h-8v2.08h5.17a1.429,1.429,0,0,1,.76.5,1.509,1.509,0,0,1,.29.936,2.888,2.888,0,0,1-.17.9Zm-5.73.776a3.527,3.527,0,0,0-1.33.7,3.144,3.144,0,0,0-.86,1.176,4.223,4.223,0,0,0-.3,1.664,3.536,3.536,0,0,0,1.09,2.776,4.522,4.522,0,0,0,3.13.984,6.109,6.109,0,0,0,1.73-.232,3.6,3.6,0,0,0,1.33-.7,3.069,3.069,0,0,0,.86-1.168,4.223,4.223,0,0,0,.3-1.664,3.561,3.561,0,0,0-1.09-2.784,4.517,4.517,0,0,0-3.13-.992A6.059,6.059,0,0,0,1702.83,825.358Zm3.62,2.344a1.421,1.421,0,0,1,.57,1.2,1.291,1.291,0,0,1-.68,1.248,3.71,3.71,0,0,1-1.78.368,3.4,3.4,0,0,1-1.87-.4,1.355,1.355,0,0,1-.59-1.216,1.464,1.464,0,0,1,.18-0.744,1.4,1.4,0,0,1,.52-0.5,2.637,2.637,0,0,1,.78-0.288,4.721,4.721,0,0,1,.98-0.1A3.229,3.229,0,0,1,1706.45,827.7Zm5.31,8.462v-2.08h-9.6a1.782,1.782,0,0,0-1.4.48,2.053,2.053,0,0,0-.42,1.392,4.89,4.89,0,0,0,.12,1.088,3.883,3.883,0,0,0,.26.784l1.63-.224a2.44,2.44,0,0,1-.14-0.456,2.327,2.327,0,0,1-.03-0.376,0.489,0.489,0,0,1,.25-0.464,1.74,1.74,0,0,1,.82-0.144h8.51Zm0,4.685v-2.08h-9.6a1.782,1.782,0,0,0-1.4.48,2.053,2.053,0,0,0-.42,1.392,4.9,4.9,0,0,0,.12,1.088,3.906,3.906,0,0,0,.26.784l1.63-.224a2.44,2.44,0,0,1-.14-0.456,2.336,2.336,0,0,1-.03-0.376,0.489,0.489,0,0,1,.25-0.464,1.74,1.74,0,0,1,.82-0.144h8.51Zm-4.96,5.872v1.1h-6.24v2.08h6.24v1.76h1.76v-1.76c0.26,0,.48.008,0.68,0.024a1.591,1.591,0,0,1,.5.112,0.571,0.571,0,0,1,.29.272,1.021,1.021,0,0,1,.1.5,5.447,5.447,0,0,1-.04.584,4.493,4.493,0,0,1-.17.648l1.66,0.4a6.185,6.185,0,0,0,.31-2.128,2.438,2.438,0,0,0-.68-1.856,3.158,3.158,0,0,0-2.2-.64h-0.45v-1.1h-1.76Zm-3.97,5.829a3.513,3.513,0,0,0-1.33.7,3.128,3.128,0,0,0-.86,1.176,4.223,4.223,0,0,0-.3,1.664,3.538,3.538,0,0,0,1.09,2.776,4.522,4.522,0,0,0,3.13.984,6.145,6.145,0,0,0,1.73-.232,3.6,3.6,0,0,0,1.33-.7,3.076,3.076,0,0,0,.86-1.168,4.227,4.227,0,0,0,.3-1.664,3.561,3.561,0,0,0-1.09-2.784,4.512,4.512,0,0,0-3.13-.992A6.059,6.059,0,0,0,1702.83,852.55Zm3.62,2.344a1.421,1.421,0,0,1,.57,1.2,1.293,1.293,0,0,1-.68,1.248,3.71,3.71,0,0,1-1.78.368,3.409,3.409,0,0,1-1.87-.4,1.355,1.355,0,0,1-.59-1.216,1.464,1.464,0,0,1,.18-0.744,1.4,1.4,0,0,1,.52-0.5,2.637,2.637,0,0,1,.78-0.288,4.721,4.721,0,0,1,.98-0.1A3.229,3.229,0,0,1,1706.45,854.894Zm2.11,11.039a2.963,2.963,0,0,0,.18-0.944,1.9,1.9,0,0,0-.32-1.088,2.223,2.223,0,0,0-.92-0.736V863.1l1.06-.24v-1.616h-8v2.08h5.17a1.441,1.441,0,0,1,.76.5,1.509,1.509,0,0,1,.29.936,2.883,2.883,0,0,1-.17.9Zm-8,11.6h5.25a1.817,1.817,0,0,1,.83.488,1.266,1.266,0,0,1,.3.888,0.848,0.848,0,0,1-.47.888,3.8,3.8,0,0,1-1.41.2h-4.5v2.08h4.8a7.888,7.888,0,0,0,1.66-.144,2.667,2.667,0,0,0,1.05-.44,1.534,1.534,0,0,0,.55-0.768,3.5,3.5,0,0,0,.16-1.144,2.575,2.575,0,0,0-.36-1.392,2.935,2.935,0,0,0-1-.944,2.034,2.034,0,0,0,1.05-.76,2.277,2.277,0,0,0,.31-1.256,2.534,2.534,0,0,0-.38-1.464,3.76,3.76,0,0,0-.9-0.936v-0.064l1.06-.24v-1.616h-8v2.08h5.33a1.891,1.891,0,0,1,.76.512,1.316,1.316,0,0,1,.29.88,0.844,0.844,0,0,1-.46.864,4.182,4.182,0,0,1-1.57.208h-4.35v2.08Zm2.27,6.1a3.527,3.527,0,0,0-1.33.7,3.144,3.144,0,0,0-.86,1.176,4.223,4.223,0,0,0-.3,1.664,3.536,3.536,0,0,0,1.09,2.776,4.522,4.522,0,0,0,3.13.984,6.109,6.109,0,0,0,1.73-.232,3.6,3.6,0,0,0,1.33-.7,3.069,3.069,0,0,0,.86-1.168,4.223,4.223,0,0,0,.3-1.664,3.561,3.561,0,0,0-1.09-2.784,4.517,4.517,0,0,0-3.13-.992A6.059,6.059,0,0,0,1702.83,883.629Zm3.62,2.344a1.421,1.421,0,0,1,.57,1.2,1.291,1.291,0,0,1-.68,1.248,3.71,3.71,0,0,1-1.78.368,3.4,3.4,0,0,1-1.87-.4,1.355,1.355,0,0,1-.59-1.216,1.464,1.464,0,0,1,.18-0.744,1.4,1.4,0,0,1,.52-0.5,2.637,2.637,0,0,1,.78-0.288,4.721,4.721,0,0,1,.98-0.1A3.229,3.229,0,0,1,1706.45,885.973Zm2.11,11.04a2.968,2.968,0,0,0,.18-0.944,1.893,1.893,0,0,0-.32-1.088,2.207,2.207,0,0,0-.92-0.736v-0.064l1.06-.24v-1.616h-8v2.08h5.17a1.429,1.429,0,0,1,.76.5,1.5,1.5,0,0,1,.29.936,2.893,2.893,0,0,1-.17.9Zm-5.95,6.642a3.091,3.091,0,0,1-.41-0.789,3.31,3.31,0,0,1-.2-1.172,1.987,1.987,0,0,1,.51-1.523,2.349,2.349,0,0,1,1.52-.518v4.784c0.28,0.053.55,0.093,0.8,0.12s0.5,0.04.72,0.04a3.861,3.861,0,0,0,1.55-.272,2.648,2.648,0,0,0,1-.72,2.723,2.723,0,0,0,.52-1.024,4.276,4.276,0,0,0,.16-1.184,3.741,3.741,0,0,0-1.05-2.832,4.442,4.442,0,0,0-3.17-1.008,4.877,4.877,0,0,0-3.1.9,3.4,3.4,0,0,0-1.12,2.832,5.6,5.6,0,0,0,.26,1.752,4.075,4.075,0,0,0,.65,1.3Zm4.05-1.257a2.039,2.039,0,0,1-1.33.263V899.7a2.4,2.4,0,0,1,1.3.469,1.434,1.434,0,0,1,.49,1.2A1.186,1.186,0,0,1,1706.66,902.4ZM1703,693h1V793h-1V693Z" transform="translate(-1700.34 -693)"/>
</svg>
