<?xml version="1.0" encoding="utf-8"?>
<!-- Generator: Adobe Illustrator 25.0.1, SVG Export Plug-In . SVG Version: 6.00 Build 0)  -->
<svg version="1.1" id="Camada_1" xmlns="http://www.w3.org/2000/svg" xmlns:xlink="http://www.w3.org/1999/xlink" x="0px" y="0px"
	 viewBox="0 0 943.6 603.3" style="enable-background:new 0 0 943.6 603.3;" xml:space="preserve">
<style type="text/css">
	.st0{fill:#FFFFFF;}
	.st1{fill:#E12A55;}
</style>
<g>
	<polygon class="st0" points="406.8,504.5 440.7,504.5 440.7,600.3 466.9,600.3 466.9,504.5 500.9,504.5 500.9,481.3 406.8,481.3 	
		"/>
	<polygon class="st0" points="262,600.3 288.2,600.3 288.2,553.9 337.8,553.9 337.8,529.7 288.2,529.7 288.2,505.5 337.8,505.5 
		348.8,481.3 262,481.3 	"/>
	<rect x="364" y="481.3" class="st0" width="26.2" height="118.9"/>
	<polygon class="st0" points="26.2,481.3 0,481.3 0,600.3 74.8,600.3 74.8,576.1 26.2,576.1 	"/>
	<path class="st0" d="M168,488.8c-4.4-2.9-9.2-4.8-14.4-5.8c-5.8-1.1-11.6-1.7-17.5-1.7H92v22.2h0.2h6.7h32.7c2.5,0,5,0.2,7.7,0.4
		c2.5,0.2,5,0.9,7.3,1.9c2.1,1,4,2.4,5.4,4.3c1.5,2.1,2.2,4.7,2.1,7.3c0.1,2.4-0.5,4.8-1.6,7c-1,1.8-2.5,3.3-4.2,4.4
		c-1.8,1.1-3.8,1.9-5.9,2.3c-2.2,0.4-4.5,0.7-6.8,0.7H98.9v0H92v68.5h26.2v-46.4h19.2c5.9,0,11.7-0.5,17.5-1.8c5-1,9.8-3,13.9-6
		c4-2.9,7.2-6.8,9.2-11.3c2.2-4.7,3.4-10.5,3.4-17.5c0-7.1-1.2-12.9-3.6-17.6C175.5,495.4,172.1,491.6,168,488.8z"/>
	<path class="st0" d="M939.6,547.5c-2.6-4-6.1-7.4-10.2-9.9c-4.1-2.5-8.6-4.4-13.2-5.7c-4.7-1.3-9.1-2.7-13.2-4
		c-3.6-1.1-7-2.7-10.2-4.9c-2.7-1.9-4.2-5-4-8.2c-0.1-2,0.5-4,1.7-5.7c1.1-1.6,2.6-2.9,4.4-3.8c1.8-1,3.7-1.7,5.7-2.1
		c1.9-0.4,3.9-0.7,5.9-0.7c3.5,0,7,0.7,10.3,1.9c3.4,1.1,6.4,3.2,8.6,6l18-19.7c-4.9-4.4-10.7-7.7-17-9.6
		c-6.3-1.9-12.9-2.9-19.5-2.9c-5.7,0-11.5,0.8-17,2.4c-5.3,1.5-10.2,4-14.5,7.3c-4.2,3.2-7.6,7.4-10.1,12.1
		c-2.6,5.2-3.9,11-3.8,16.8c0,6.6,1.4,11.9,4.1,16c2.7,4,6.2,7.3,10.3,9.8c4.2,2.5,8.7,4.5,13.4,5.9c4.8,1.5,9.3,2.9,13.4,4.4
		c3.7,1.2,7.2,3,10.3,5.3c2.7,2,4.2,5.1,4.1,8.5c0,2-0.5,3.9-1.6,5.6c-1.1,1.6-2.5,2.9-4.2,3.9c-1.8,1-3.8,1.8-5.9,2.3
		c-6.4,1.5-13.2,0.7-19.1-2.2c-4-1.9-7.5-4.8-10.2-8.3l-18.6,20.5c5.3,5,11.6,8.9,18.5,11.4c12.6,4.3,26.2,4.7,39.1,1.2
		c5.3-1.4,10.3-3.9,14.6-7.2c4.2-3.3,7.6-7.5,10-12.3c2.6-5.4,3.8-11.3,3.7-17.3C943.6,557.2,942.3,551.7,939.6,547.5z"/>
	<path class="st0" d="M831.2,537.6c-4.1-2.5-8.6-4.4-13.2-5.7c-4.7-1.3-9.1-2.7-13.2-4v0c-3.6-1.1-7-2.7-10.2-4.9
		c-2.7-1.9-4.2-5-4-8.2c-0.1-2,0.5-4,1.7-5.7c1.1-1.6,2.6-2.9,4.4-3.8c1.8-1,3.7-1.7,5.7-2.1c1.9-0.4,3.9-0.7,5.9-0.7
		c3.5,0.1,7,0.7,10.3,1.9c3.4,1.1,6.4,3.2,8.6,6l18-19.7c-4.9-4.4-10.7-7.7-17-9.6c-6.3-1.9-12.9-2.9-19.5-2.9
		c-5.7,0-11.5,0.8-17,2.4c-5.3,1.5-10.2,4-14.5,7.3c-4.2,3.2-7.6,7.4-10.1,12.1c-2.6,5.2-3.9,11-3.8,16.8c0,6.6,1.4,11.9,4.1,16
		c2.7,4,6.2,7.3,10.3,9.8c4.2,2.5,8.7,4.5,13.4,5.9c4.8,1.5,9.3,2.9,13.4,4.4c3.7,1.2,7.2,3,10.3,5.3c2.7,2,4.2,5.1,4.1,8.5
		c0,2-0.5,3.9-1.6,5.6c-1.1,1.6-2.5,2.9-4.2,3.9c-1.8,1-3.8,1.8-5.9,2.3c-6.4,1.5-13.2,0.7-19.1-2.2c-4-1.9-7.5-4.8-10.2-8.3
		l-18.6,20.5c5.3,5,11.6,8.9,18.5,11.4c12.6,4.3,26.2,4.7,39.1,1.2c5.3-1.4,10.3-3.9,14.6-7.2c4.2-3.3,7.6-7.5,10-12.3
		c2.6-5.4,3.8-11.3,3.7-17.3c0-6.9-1.3-12.5-4-16.6C838.8,543.5,835.3,540.1,831.2,537.6z"/>
	<polygon class="st0" points="604.1,564 603.8,564 553.2,481.3 517.6,481.3 517.6,600.3 543.8,600.3 543.8,515.6 544.2,515.6 
		596.1,600.3 630.3,600.3 630.3,481.3 604.1,481.3 	"/>
	<polygon class="st0" points="737.4,505.5 748.4,481.3 659.6,481.3 659.6,600.3 743.4,600.3 743.4,576.1 685.8,576.1 685.8,551.9 
		737.4,551.9 737.4,527.7 685.8,527.7 685.8,505.5 	"/>
</g>
<polygon class="st1" points="804.9,0 385.9,0 280.9,241 301.9,331 419.8,60 719,60 627.8,271 419,271 471.7,150 589.9,150 
	575.9,181 486.9,181 459.9,241 609.9,241 676.9,90 436.9,90 331.9,331 285.9,437 392.9,331 632.9,331 662.9,331 "/>
</svg>
