<svg xmlns="http://www.w3.org/2000/svg" width="300" height="61" viewBox="0 0 943.4 189.97"><g><g><polygon fill="#e12a55" points="227.78 0 45.64 0 0 104.76 9.13 143.89 60.38 26.08 190.44 26.08 150.8 117.8 60.03 117.8 82.94 65.2 134.32 65.2 128.24 78.68 89.55 78.68 77.81 104.76 143.02 104.76 172.14 39.12 67.81 39.12 22.17 143.89 2.17 189.97 48.69 143.89 153.01 143.89 166.06 143.89 227.78 0"/><polygon fill="#fff" points="559.57 55.08 583.81 55.08 583.81 123.61 602.55 123.61 602.55 55.08 626.87 55.08 626.87 38.49 559.57 38.49 559.57 55.08"/><polygon fill="#fff" points="455.99 123.61 474.73 123.61 474.73 90.42 510.21 90.42 510.21 73.11 474.73 73.11 474.73 55.8 510.21 55.8 518.08 38.49 455.99 38.49 455.99 123.61"/><rect fill="#fff" x="528.95" y="38.49" width="18.74" height="85.05"/><polygon fill="#fff" points="287.33 38.49 268.59 38.49 268.59 123.61 322.09 123.61 322.09 106.3 287.33 106.3 287.33 38.49"/><path fill="#fff" d="M388.76,43.85a28.14,28.14,0,0,0-10.3-4.14,66.66,66.66,0,0,0-12.52-1.22H334.4V54.37h28.32c1.79,0,3.58.14,5.51.28A16.84,16.84,0,0,1,373.45,56a10.16,10.16,0,0,1,3.86,3.08,8.33,8.33,0,0,1,1.5,5.22,10.17,10.17,0,0,1-1.14,5,9.06,9.06,0,0,1-3,3.15,12.92,12.92,0,0,1-4.22,1.64,27.08,27.08,0,0,1-4.87.5H334.4v49h18.74V90.42h13.73a56.82,56.82,0,0,0,12.52-1.29,25.09,25.09,0,0,0,9.94-4.29,20.07,20.07,0,0,0,6.58-8.08,29.39,29.39,0,0,0,2.43-12.52,27.47,27.47,0,0,0-2.57-12.59A22.3,22.3,0,0,0,388.76,43.85Z"/><path fill="#fff" d="M940.67,85.84a23.07,23.07,0,0,0-7.3-7.08,38,38,0,0,0-9.44-4.08c-3.36-.93-6.51-1.93-9.44-2.86a26.52,26.52,0,0,1-7.3-3.5,6.69,6.69,0,0,1-2.86-5.87,6.53,6.53,0,0,1,1.22-4.08,8.26,8.26,0,0,1,3.14-2.71,14,14,0,0,1,4.08-1.51,21.08,21.08,0,0,1,4.22-.5A21.61,21.61,0,0,1,924.36,55a12.9,12.9,0,0,1,6.15,4.29l12.88-14.09a32.28,32.28,0,0,0-12.16-6.86,48.44,48.44,0,0,0-14-2.08A43.57,43.57,0,0,0,905.12,38a30.72,30.72,0,0,0-10.37,5.22,26.35,26.35,0,0,0-7.23,8.66,25.91,25.91,0,0,0-2.72,12c0,4.72,1,8.51,2.94,11.45a23.79,23.79,0,0,0,7.36,7,43.42,43.42,0,0,0,9.59,4.22c3.43,1.07,6.65,2.07,9.58,3.14a25.88,25.88,0,0,1,7.37,3.79,7.72,7.72,0,0,1,1.79,10.09,9.54,9.54,0,0,1-3,2.79A16.6,16.6,0,0,1,916.2,108a20.42,20.42,0,0,1-13.66-1.57,20.21,20.21,0,0,1-7.29-5.94l-13.31,14.67a38.43,38.43,0,0,0,13.24,8.15,47.76,47.76,0,0,0,28,.86A29.78,29.78,0,0,0,933.59,119a25.91,25.91,0,0,0,7.15-8.8,27.35,27.35,0,0,0,2.65-12.37C943.53,92.78,942.6,88.85,940.67,85.84Z"/><path fill="#fff" d="M863.13,78.76a38,38,0,0,0-9.44-4.08c-3.36-.93-6.51-1.93-9.44-2.86h0a26.52,26.52,0,0,1-7.3-3.5,6.69,6.69,0,0,1-2.86-5.87,6.53,6.53,0,0,1,1.22-4.08,8.26,8.26,0,0,1,3.14-2.71,14,14,0,0,1,4.08-1.51,21.08,21.08,0,0,1,4.22-.5A23.49,23.49,0,0,1,854.12,55a12.9,12.9,0,0,1,6.15,4.29l12.88-14.09A32.28,32.28,0,0,0,861,38.35a48.44,48.44,0,0,0-14-2.08A43.57,43.57,0,0,0,834.88,38a30.72,30.72,0,0,0-10.37,5.22,26.35,26.35,0,0,0-7.23,8.66,25.91,25.91,0,0,0-2.72,12c0,4.72,1,8.51,2.94,11.45a23.79,23.79,0,0,0,7.36,7,43.42,43.42,0,0,0,9.59,4.22c3.43,1.07,6.65,2.07,9.58,3.14a25.88,25.88,0,0,1,7.37,3.79,7.72,7.72,0,0,1,1.79,10.09,9.46,9.46,0,0,1-3,2.79A16.39,16.39,0,0,1,846,108a20.42,20.42,0,0,1-13.66-1.57A20.21,20.21,0,0,1,825,100.5L811.7,115.17a38.43,38.43,0,0,0,13.24,8.15,47.76,47.76,0,0,0,28,.86A29.78,29.78,0,0,0,863.35,119a25.91,25.91,0,0,0,7.15-8.8,27.35,27.35,0,0,0,2.65-12.37c0-4.94-.93-8.94-2.87-11.88A20.35,20.35,0,0,0,863.13,78.76Z"/><polygon fill="#fff" points="700.69 97.64 700.48 97.64 664.28 38.49 638.82 38.49 638.82 123.61 657.56 123.61 657.56 63.02 657.85 63.02 694.97 123.61 719.43 123.61 719.43 38.49 700.69 38.49 700.69 97.64"/><polygon fill="#fff" points="796.04 55.8 803.91 38.49 740.39 38.49 740.39 123.61 800.33 123.61 800.33 106.3 759.13 106.3 759.13 88.99 796.04 88.99 796.04 71.68 759.13 71.68 759.13 55.8 796.04 55.8"/></g></g></svg>